<svg width="19" height="19" viewBox="0 0 19 19" fill="none" xmlns="http://www.w3.org/2000/svg">
<path d="M9.76024 17.223C5.6181 17.223 2.26024 13.8651 2.26024 9.72296C2.26024 5.58083 5.6181 2.22296 9.76024 2.22296C13.9024 2.22296 17.2602 5.58083 17.2602 9.72296C17.2557 13.8632 13.9005 17.2184 9.76024 17.223ZM9.74824 15.723H9.76024C13.0728 15.7196 15.7559 13.0325 15.7542 9.71996C15.7526 6.40743 13.0668 3.72296 9.75424 3.72296C6.4417 3.72296 3.7559 6.40743 3.75424 9.71996C3.75258 13.0325 6.4357 15.7196 9.74824 15.723ZM8.26024 13.473L5.26024 10.473L6.31774 9.41546L8.26024 11.3505L13.2027 6.40796L14.2602 7.47296L8.26024 13.473Z" fill="#29AC46"/>
</svg>
