<svg width="25" height="24" viewBox="0 0 25 24" fill="none" xmlns="http://www.w3.org/2000/svg">
<path d="M12.8267 22C8.78024 22.0024 5.13118 19.5659 3.58235 15.8276C2.03352 12.0893 2.89023 7.78606 5.75269 4.92598C8.27998 2.39868 11.9636 1.41166 15.4159 2.33672C18.8683 3.26177 21.5649 5.95836 22.4899 9.41072C23.415 12.8631 22.428 16.5467 19.9007 19.074C18.0281 20.955 15.4808 22.0086 12.8267 22ZM4.82669 12.172C4.874 16.5732 8.46779 20.1095 12.8692 20.086C17.2707 20.0622 20.8262 16.4875 20.8262 12.086C20.8262 7.68449 17.2707 4.10975 12.8692 4.08598C8.46779 4.06244 4.874 7.59874 4.82669 12V12.172ZM10.2357 16L8.82669 14.59L11.4167 12L8.82669 9.40998L10.2367 7.99998L12.8267 10.59L15.4167 7.99998L16.8267 9.40998L14.2367 12L16.8267 14.59L15.4177 16L12.8267 13.41L10.2367 16H10.2357Z" fill="white"/>
</svg>
