<svg width="19" height="19" viewBox="0 0 19 19" fill="none" xmlns="http://www.w3.org/2000/svg">
<path d="M9.70603 17.2246C6.67119 17.2263 3.9344 15.399 2.77277 12.5953C1.61115 9.79153 2.25368 6.56409 4.40053 4.41903C6.296 2.52356 9.05871 1.78329 11.648 2.47709C14.2372 3.17088 16.2597 5.19332 16.9535 7.78259C17.6473 10.3718 16.907 13.1346 15.0115 15.03C13.6071 16.4408 11.6966 17.231 9.70603 17.2246ZM3.70602 9.85353C3.74151 13.1545 6.43686 15.8067 9.73793 15.789C13.039 15.7712 15.7057 13.0902 15.7057 9.78903C15.7057 6.48791 13.039 3.80686 9.73793 3.78903C6.43686 3.77138 3.74151 6.4236 3.70602 9.72453V9.85353ZM7.76277 12.7245L6.70602 11.667L8.64853 9.72453L6.70602 7.78203L7.76352 6.72453L9.70603 8.66703L11.6485 6.72453L12.706 7.78203L10.7635 9.72453L12.706 11.667L11.6493 12.7245L9.70603 10.782L7.76352 12.7245H7.76277Z" fill="#A90B0B"/>
</svg>
